<svg xmlns="http://www.w3.org/2000/svg" xmlns:xlink="http://www.w3.org/1999/xlink" width="500" zoomAndPan="magnify" viewBox="0 0 375 374.999991" height="500" preserveAspectRatio="xMidYMid meet" version="1.0"><defs><clipPath id="2d68cdcc88"><path d="M 47.519531 69.472656 L 281 69.472656 L 281 117 L 47.519531 117 Z M 47.519531 69.472656 " clip-rule="nonzero"/></clipPath><clipPath id="f84f5b6b40"><path d="M 47.90625 163.1875 L 341.742188 163.1875 L 341.742188 211.699219 L 47.90625 211.699219 Z M 47.90625 163.1875 " clip-rule="nonzero"/></clipPath><clipPath id="b515e3b365"><path d="M 47.90625 258.003906 L 230.925781 258.003906 L 230.925781 305.566406 L 47.90625 305.566406 Z M 47.90625 258.003906 " clip-rule="nonzero"/></clipPath></defs><g clip-path="url(#2d68cdcc88)"><path fill="#ffffff" d="M 256.488281 116.691406 L 71.515625 116.691406 C 58.472656 116.691406 47.90625 106.121094 47.90625 93.082031 C 47.90625 80.046875 58.472656 69.476562 71.515625 69.476562 L 256.488281 69.476562 C 269.53125 69.476562 280.097656 80.046875 280.097656 93.082031 C 280.097656 106.121094 269.53125 116.691406 256.488281 116.691406 " fill-opacity="1" fill-rule="nonzero"/></g><g clip-path="url(#f84f5b6b40)"><path fill="#ffffff" d="M 318.128906 211.128906 L 71.515625 211.128906 C 58.472656 211.128906 47.90625 200.5625 47.90625 187.519531 C 47.90625 174.480469 58.472656 163.910156 71.515625 163.910156 L 318.128906 163.910156 C 331.167969 163.910156 341.738281 174.480469 341.738281 187.519531 C 341.738281 200.5625 331.167969 211.128906 318.128906 211.128906 " fill-opacity="1" fill-rule="nonzero"/></g><g clip-path="url(#b515e3b365)"><path fill="#ffffff" d="M 206.707031 305.566406 L 71.515625 305.566406 C 58.472656 305.566406 47.90625 295 47.90625 281.957031 C 47.90625 268.917969 58.472656 258.347656 71.515625 258.347656 L 206.707031 258.347656 C 219.75 258.347656 230.316406 268.917969 230.316406 281.957031 C 230.316406 295 219.75 305.566406 206.707031 305.566406 " fill-opacity="1" fill-rule="nonzero"/></g></svg>